<?xml version="1.0" encoding="utf-8"?>
<!-- Generator: Adobe Illustrator 19.0.0, SVG Export Plug-In . SVG Version: 6.00 Build 0)  -->
<svg version="1.1" id="Layer_1" xmlns="http://www.w3.org/2000/svg" xmlns:xlink="http://www.w3.org/1999/xlink" x="0px" y="0px"
	 viewBox="-399 151 200 200" style="enable-background:new -399 151 200 200;" xml:space="preserve">
<style type="text/css">
	.st0{fill:#FFFFFF;}
	.st1{fill:#13B796;}
	.st2{fill:#EF4882;}
	.st3{fill:#8EC641;}
	.st4{fill:#FCEE23;}
	.st5{fill:#AC8BC0;}
	.st6{fill:#EC2227;}
	.st7{fill:#F89521;}
	.st8{fill:#45C5F3;}
	.st9{fill:#81D3F1;}
	.st10{fill:#81CEC9;}
	.st11{fill:#364A5E;}
</style>
<g id="XMLID_72_">
	<g id="XMLID_211_">
		<path id="XMLID_70_" class="st0" d="M-207.1,211.8c0.1-0.1,0.3-0.2,0.3-0.3l-0.8-0.9c-0.2-0.3-0.3-0.7-0.3-1
			c-4.4-10.3-12.7-17.8-22.3-20.4c-0.6-13.8-15.4-27.3-35.6-31.5c-4.2-0.9-8.3-1.3-12.4-1.3c-9.1,0-17.4,2.1-23.7,6.2
			c-6.3-2.7-13.6-3.2-20.2-1c-5.2,1.7-9.7,4.7-13.1,8.9c-1.2-0.2-2.4-0.2-3.7-0.2c-8.2,0-16.5,3.1-23.5,8.5c-7.5,6-12.6,14-14,22.6
			c-8.2,3-14,10.3-15.2,19c-0.7,5.6,0.6,11.1,3.7,15.8c-1.7,6.8-1.2,13.9,1.5,20.3c5,12,17.3,19.7,30.9,19.7c5,0,9.9-1,14.5-3h0.1
			c5.5,10.9,17.1,17.9,30.1,17.9c4.8,0,9.5-0.9,13.9-2.7c1.9,1.3,4.9,2.6,9,2.5c3.8,10.3,14.5,25.4,35,25.4c4.4,0,9.1-0.7,14-2.1
			l12.9-3.6l-12.8-3.9c-8-2.5-12.9-6.8-14.5-12.9c3.6,1.2,7.4,1.8,11.1,1.8c5,0,9.9-1,14.5-3c8.7-3.7,15.6-9.7,19.2-16.8
			c3.9-7.6,4.1-16.2,0.7-24.4c-0.8-1.8-1.7-3.5-2.7-5.1C-204.4,237.5-203,223.5-207.1,211.8z"/>
		<path id="XMLID_212_" class="st0" d="M-252.9,322c-19.9,0-32.8-12.7-38.9-25.6c-2.1-0.3-4-0.9-5.5-1.6c-4.4,1.5-8.9,2.2-13.5,2.2
			c-13.4,0-25.5-6.2-32.6-16.6c-3.9,1.2-8,1.8-12.1,1.8c-16,0-30.3-9.1-36.2-23.2c-2.8-6.7-3.7-14.3-2.3-21.5
			c-2.9-5.4-4-11.5-3.2-17.5c1.3-9.7,7.3-18,15.9-22.4c2.3-8.8,7.7-16.8,15.5-23c8.4-6.6,18.5-10.2,28.3-9.7
			c3.8-3.8,8.5-6.7,13.7-8.4c6.8-2.2,14.5-2.1,21.5,0.1c10.2-5.4,24-6.9,37.8-4.1c20.7,4.3,36.7,17.7,39.7,32.7
			c9.7,3.8,17.9,12,22.3,22.5l0.3,0.4c1,1.2,1.5,2.7,1.4,4c3.5,11.6,2.5,24.7-2.7,34.4c0.5,0.9,0.9,1.9,1.4,2.8
			c4.1,9.7,3.8,20.2-0.9,29.2c-4.3,8.3-12.1,15.2-22.1,19.5c-4,1.7-8.1,2.7-12.3,3.2c0.2,0.1,0.3,0.1,0.6,0.2l12.8,3.9
			c2.5,0.8,4.1,3,4,5.6c0,2.6-1.7,4.8-4.2,5.5l-12.9,3.6C-242.7,321.2-247.9,322-252.9,322L-252.9,322z M-288.2,285.1
			c2.4,0,5,1.5,5.7,3.8c1.4,3.6,9.1,21.6,29.6,21.6c2.2,0,4.4-0.2,6.8-0.6c-6.8-3.3-11.1-8.3-12.8-14.8c-0.5-2.1,0.1-4.2,1.6-5.6
			c1.5-1.5,3.8-2,5.7-1.3c6.9,2.3,14.7,1.9,21.6-1c7.5-3.2,13.3-8.2,16.3-14.2c3.1-6.1,3.2-13,0.5-19.5c-0.6-1.5-1.4-2.8-2.2-4.2
			c-1.3-2-1.3-4.5,0.1-6.5c5-7.1,6.1-19.3,2.6-29.2c-0.1-0.2-0.1-0.3-0.2-0.4l-0.3-0.5l-0.2-0.5c-3.8-8.9-10.7-15.3-18.6-17.4
			c-2.4-0.7-4.1-2.8-4.3-5.3c-0.5-11.3-13.8-22.5-31-26.1c-11.9-2.5-24-0.9-31.8,4c-1.6,1-3.6,1.2-5.4,0.4c-5-2.2-10.9-2.5-16.1-0.8
			c-4.1,1.4-7.7,3.8-10.4,7.1c-1.2,1.5-3.2,2.3-5,2.1c-7.7-0.9-16.1,1.7-22.9,7.2c-6.4,5.1-10.7,11.9-12,19.1
			c-0.3,2-1.7,3.7-3.6,4.4c-6.2,2.4-10.7,8-11.5,14.4c-0.5,4.3,0.4,8.4,2.7,12c0.9,1.4,1.2,3,0.8,4.5c-1.5,5.6-1,11.5,1.2,16.7
			c4.2,9.8,14.3,16.2,25.6,16.2c4.2,0,8.4-0.9,12.3-2.6c2.8-1.2,6.1,0,7.4,2.7c4.6,9.1,14.1,14.7,25,14.7c4,0,8-0.8,11.8-2.3
			c1.8-0.7,3.8-0.5,5.4,0.6C-292.5,284.3-290.8,285.1-288.2,285.1L-288.2,285.1z"/>
	</g>
	<g id="XMLID_168_">
		<path id="XMLID_67_" class="st1" d="M-268,165.4c-7.9-1.5-15.8-1.2-22.3,0.7c5,3.9,13,10.6,21.8,19.2
			C-268,179.1-267.7,172.4-268,165.4z"/>
		<path id="XMLID_66_" class="st1" d="M-279.7,196.7c3.5-1.3,6.8-2.3,10.2-3.1c0-0.2,0.1-0.4,0.1-0.6
			c-11.8-12.1-22.6-20.8-27.2-24.3c-0.9,0.5-1.7,1-2.5,1.6l-2.1,1.5l-2.2-1.2c-5-2.7-10.9-3.2-16.2-1.5c-4.4,1.4-8,4.1-10.6,7.9
			l-1.5,2.1l-2.6-0.5c-1.5-0.3-3-0.4-4.5-0.4c-6.4,0-13,2.4-18.6,6.8c-0.6,0.4-1.1,0.9-1.6,1.5c7.8,5.3,27.2,17.6,50.7,26.6
			C-298.8,205.1-288.7,200-279.7,196.7z"/>
		<path id="XMLID_65_" class="st2" d="M-314.3,227.1c11.4,2.1,21.2,5.7,29.7,10.1c1.8-3,3.5-6.2,5-9.7c-8.8-1.6-18-4.1-27.7-7.6
			C-309.8,222.1-312.1,224.6-314.3,227.1z"/>
		<path id="XMLID_64_" class="st3" d="M-320.9,226.1c2.5-3.1,5-5.9,7.7-8.5c-23.8-9.5-42.7-21.7-49.9-26.8
			c-3.2,4.2-5.3,9.1-5.7,13.9l-0.3,2.7l-2.7,0.7c-6.4,1.6-11,6.8-11.9,13.3c-0.4,3.7,0.3,7.3,2.3,10.3
			C-357.9,225.1-337.9,223.9-320.9,226.1z"/>
		<path id="XMLID_63_" class="st2" d="M-262,192c10.4-1.9,19.1-2.1,23.9-1.9c0-9.1-10-18.7-23.9-23.1c0.3,8.5-0.2,16.4-1.1,23.8
			C-262.8,191.2-262.4,191.6-262,192L-262,192z"/>
		<path id="XMLID_62_" class="st4" d="M-270.6,200c-2.4,0.7-4.8,1.5-7.3,2.3c-9,3.2-16.9,7.6-23.9,13c8,2.7,16.3,5,24.8,6.5
			C-274.5,215.3-272.3,208.1-270.6,200z"/>
		<path id="XMLID_61_" class="st5" d="M-245,222.5c-5.9-8.7-12.6-16.9-19.2-24.1h-0.1c-1.6,8.9-3.9,17-6.8,24.3
			C-262.4,223.8-253.5,223.9-245,222.5z"/>
		<path id="XMLID_60_" class="st6" d="M-257.1,197.2c6.5,7.3,13,15.4,18.6,24.1c8-2,15.6-5.2,22.7-10.1c-4-8-11.2-13.8-18.9-14.8
			l-2.1-0.3C-240.6,195.9-247.9,195.9-257.1,197.2z"/>
		<path id="XMLID_59_" class="st7" d="M-213.8,216.8c-6.5,4.4-13.8,7.6-21.5,9.7c9.6,16.3,15.9,34.5,14.1,52.8
			c2.5-2.2,4.5-4.7,5.9-7.4c2.8-5.6,3-11.6,0.4-17.7c-0.9-2.1-2.1-4-3.5-5.8l-2.2-2.7l2.4-2.6C-213,237.8-211.3,226.5-213.8,216.8
			L-213.8,216.8z"/>
		<path id="XMLID_58_" class="st4" d="M-258.5,229.5c-4.8,0-9.8-0.3-15-1c-1.9,4.2-3.8,8-6,11.6c4.5,2.7,8.6,5.5,12.2,8.3
			c18.4,14.5,28.1,31.5,31.5,38.4c1.7-0.4,3.4-0.9,5-1.5c0.9-0.4,1.9-0.9,2.7-1.3c3.7-19.1-3.1-38.6-13.7-55.9
			C-247,228.9-252.6,229.5-258.5,229.5z"/>
		<path id="XMLID_57_" class="st8" d="M-271.1,252.9c-3.7-2.9-7.5-5.5-11.5-7.9c-3.8,5.7-7.6,10.6-11.4,14.6
			c-10,10.9-20.2,17.9-26.8,21.7c3.1,1.2,6.5,1.9,10.1,1.9c3.9,0,7.8-0.8,11.5-2.4c0.5-0.2,0.9-0.4,1.5-0.7l2.9-1.4l2,2.5
			c0,0,1.5,1.6,4.5,1.6c0.8,0,1.6-0.1,2.5-0.3l3.8-0.9l0.9,3.8c0.3,0.9,6.2,22.7,28.4,22.7h0.3c-6.1-4.8-9.2-11.5-9.2-20v-0.9
			l0.3-6.8l5.7,3.3c4.1,2.4,9,3.6,13.8,3.6C-245.9,280.1-255.2,265.4-271.1,252.9L-271.1,252.9z"/>
		<path id="XMLID_56_" class="st9" d="M-298.1,255.4c3.4-3.8,6.9-8.1,10.3-13.3c-9.5-4.9-19.7-8.2-30.6-9.9
			c-7.3,10.1-12.7,22.1-16.2,35.9c0,0.1,0.1,0.2,0.1,0.3c1.6,3.8,4.3,7.1,7.5,9.6C-321,274.9-309.5,267.9-298.1,255.4z"/>
		<path id="XMLID_55_" class="st10" d="M-380,237.7c-1.5,5.4-1.2,10.9,0.9,15.9c3.8,9.1,13.2,14.9,23.7,14.9c3.9,0,7.8-0.8,11.5-2.4
			c1-0.4,2.1-1,3.2-1.6l1.3-0.8c3.5-12.8,8.5-23.5,14.5-32.2C-341.8,229.8-360.2,231.8-380,237.7z"/>
		<path id="XMLID_170_" class="st11" d="M-207.1,211.8c0.1-0.1,0.3-0.2,0.3-0.3l-0.8-0.9c-0.1-0.3-0.3-0.7-0.3-1
			c-4.4-10.3-12.7-17.8-22.2-20.4c-0.6-13.8-15.4-27.3-35.6-31.5c-4.2-0.9-8.3-1.3-12.4-1.3c-9.1,0-17.4,2.1-23.7,6.2
			c-6.3-2.7-13.6-3.2-20.2-1c-5.2,1.7-9.7,4.7-13.1,8.9c-1.2-0.2-2.4-0.2-3.7-0.2c-8.2,0-16.5,3.1-23.5,8.5c-7.5,6-12.6,14-14,22.6
			c-8.2,3-14,10.3-15.2,19c-0.7,5.6,0.6,11.1,3.7,15.8c-1.7,6.8-1.2,13.9,1.5,20.3c5,12,17.3,19.7,30.9,19.7c5,0,9.9-1,14.5-3h0.1
			c5.5,10.9,17.1,17.9,30.1,17.9c4.8,0,9.5-0.9,13.9-2.7c1.9,1.3,4.9,2.6,9,2.5c3.8,10.3,14.5,25.4,35,25.4c4.4,0,9.1-0.7,14-2.1
			l12.9-3.6l-12.8-3.9c-8-2.5-12.9-6.8-14.5-12.9c3.6,1.2,7.4,1.8,11.1,1.8c5,0,9.9-1,14.5-3c8.7-3.7,15.6-9.7,19.2-16.8
			c3.9-7.6,4.1-16.2,0.7-24.4c-0.8-1.8-1.7-3.5-2.7-5.1C-204.4,237.5-203,223.5-207.1,211.8z M-234.8,196.4c7.7,1,15,6.8,18.9,14.8
			c-7.1,5-14.7,8.2-22.7,10.1c-5.6-8.7-12.1-16.8-18.6-24.1c9.2-1.4,16.6-1.3,20.2-1.1L-234.8,196.4L-234.8,196.4z M-262.1,167
			c13.9,4.4,23.9,13.9,23.9,23.1c-4.8-0.2-13.5,0-23.9,1.9c-0.4-0.4-0.8-0.9-1.2-1.2C-262.3,183.4-261.8,175.4-262.1,167L-262.1,167
			z M-264.3,198.5c6.8,7.2,13.4,15.3,19.3,24.1c-8.5,1.3-17.4,1.2-26.1,0.2C-268.3,215.4-265.9,207.4-264.3,198.5z M-301.9,215.3
			c7-5.4,15-9.7,23.9-13c2.5-0.9,4.9-1.6,7.3-2.3c-1.6,8-3.8,15.3-6.5,21.8C-285.6,220.4-293.9,218.1-301.9,215.3z M-279.5,227.5
			c-1.6,3.4-3.3,6.7-5,9.7c-8.4-4.3-18.3-8-29.7-10.1c2.2-2.6,4.5-5,7-7.3C-297.7,223.4-288.4,225.9-279.5,227.5L-279.5,227.5z
			 M-268,165.4c0.3,7,0.1,13.7-0.5,19.9c-8.8-8.6-16.8-15.3-21.8-19.2C-283.8,164.2-275.9,163.9-268,165.4z M-357.4,185
			c5.6-4.4,12.2-6.8,18.6-6.8c1.5,0,3.1,0.2,4.5,0.4l2.6,0.5l1.5-2.1c2.6-3.8,6.2-6.4,10.6-7.9c5.4-1.7,11.3-1.2,16.2,1.5l2.2,1.2
			l2.1-1.5c0.8-0.6,1.6-1.1,2.5-1.6c4.6,3.6,15.4,12.3,27.2,24.3c0,0.2-0.1,0.4-0.1,0.6c-3.3,0.9-6.7,1.9-10.2,3.1
			c-9,3.2-19.1,8.4-28.6,16.3c-23.3-8.9-42.8-21.2-50.6-26.5C-358.5,185.9-357.9,185.5-357.4,185z M-383.7,221.5
			c0.9-6.4,5.5-11.6,11.9-13.3l2.7-0.7l0.3-2.7c0.4-4.9,2.5-9.7,5.7-13.9c7.2,5,26.1,17.3,49.8,26.8c-2.7,2.6-5.2,5.4-7.7,8.5
			c-16.9-2.1-37-1-60.4,5.7C-383.3,228.8-384.2,225.2-383.7,221.5z M-339.5,263.7l-1.3,0.8c-1.1,0.6-2.1,1.2-3.2,1.6
			c-3.7,1.5-7.5,2.4-11.5,2.4c-10.5,0-19.8-5.8-23.7-14.9c-2.1-5-2.4-10.5-0.9-15.9c19.8-5.8,38.2-7.9,55.1-6.2
			C-330.8,240.1-335.9,250.8-339.5,263.7L-339.5,263.7z M-334.3,268.3c0-0.1-0.1-0.2-0.1-0.3c3.4-13.8,8.8-25.8,16.1-35.8
			c10.9,1.7,21,5,30.6,9.9c-3.4,5.1-6.9,9.6-10.3,13.3c-11.3,12.4-22.9,19.4-28.7,22.5C-330.1,275.4-332.7,272.2-334.3,268.3z
			 M-255.9,283.9l-5.7-3.3l-0.3,6.8v0.9c0,8.5,3.2,15.2,9.2,20h-0.3c-22.2,0-28.1-21.9-28.4-22.7l-0.9-3.8l-3.8,0.9
			c-0.9,0.2-1.7,0.3-2.5,0.3c-3.1,0-4.5-1.6-4.5-1.6l-2-2.5l-2.9,1.4c-0.4,0.3-0.9,0.4-1.5,0.7c-3.7,1.5-7.5,2.4-11.5,2.4
			c-3.5,0-6.9-0.7-10.1-1.9c6.7-3.8,16.8-10.7,26.8-21.7c3.8-4.1,7.6-9,11.4-14.6c3.9,2.3,7.8,5,11.5,7.9
			c15.9,12.5,25.1,27.2,29.2,34.6C-246.9,287.5-251.8,286.3-255.9,283.9L-255.9,283.9z M-227.9,283.8c-0.9,0.4-1.8,0.9-2.7,1.3
			c-1.6,0.7-3.3,1.2-5,1.5c-3.4-6.9-13.2-23.9-31.5-38.4c-3.6-2.8-7.7-5.6-12.2-8.3c2.1-3.6,4.1-7.4,6-11.6c5.1,0.7,10.2,1,15,1
			c5.9,0,11.5-0.5,16.9-1.5C-231,245.4-224.2,264.8-227.9,283.8L-227.9,283.8z M-218.4,248.5c1.5,1.8,2.7,3.7,3.5,5.8
			c2.6,6.1,2.4,12.1-0.4,17.7c-1.4,2.7-3.4,5.1-5.9,7.4c1.9-18.4-4.4-36.5-14.1-52.8c7.8-2.1,15-5.3,21.5-9.7
			c2.6,9.7,0.9,20.9-4.4,26.4l-2.4,2.6L-218.4,248.5L-218.4,248.5z"/>
	</g>
</g>
</svg>
